<?xml version="1.0" encoding="utf-8"?>
<!-- Generator: Adobe Illustrator 24.0.0, SVG Export Plug-In . SVG Version: 6.00 Build 0)  -->
<svg version="1.1" id="Layer_1" xmlns="http://www.w3.org/2000/svg" xmlns:xlink="http://www.w3.org/1999/xlink" x="0px" y="0px"
	 viewBox="0 0 864 864" style="enable-background:new 0 0 864 864;" xml:space="preserve">
<style type="text/css">
	.st0{fill:#101616;}
	.st1{fill:#D24B49;}
	.st2{fill:#FFFFFF;}
	.st3{fill:#06080A;}
	.st4{fill:#2A9D53;}
</style>
<g>
	<g id="Слой_5">
		<g>
			<path class="st0" d="M721.4,457c-9.5-38.8-28.3-73.1-54.4-99.1c0,0-0.1-0.1-0.1-0.1c-12.1-11.7-22.9-20.1-34-26.3
				c-3.9-7.6-7.9-14.3-12.2-20.1c2.6-3.4,4.9-6.8,6.8-9.9c0.1-0.1,0.1-0.2,0.2-0.3c11.1-18.8,20.5-38.8,28.2-55.9
				c6-13.4,13.8-31.2,20.9-49.2c4.3-10.1,8.3-20.4,12.2-30.4c1.1-2.8,2.2-5.6,3.3-8.4c1.8-4,1.2-8.8-1.7-12.2
				c-3.1-3.6-8-4.9-12.4-3.2c-2.4,0.9-4.5,1.9-6.6,2.9c-1.4,0.7-2.7,1.3-4,1.8c-0.1,0-0.2,0.1-0.3,0.1c-3.4,1.5-7.2,3.2-11.4,5.1
				c-0.1,0-0.2,0.1-0.3,0.1c-4.2,2-8.5,3.9-12.7,5.8c-4.3,2-8.8,4-13.2,6.1c-11,5-22,10-33,15c-10.1,4.6-20.1,9.1-30.3,13.7
				c-8.8,4.1-17.8,8.2-26.5,12.1c-3.1,1.4-6.2,2.8-9.4,4.2c0.1-0.2,0.1-0.4,0.2-0.6c1-3.1,2.1-6.7,2.5-10.6c0.3-2.9-0.7-5.9-2.8-8
				c-2-2.1-4.9-3.1-7.8-2.9h-0.1c-1.2,0-4.3,0.1-7.3,2.2c0.1-0.9,0.2-1.8,0.3-2.7c0.3-2.3,0.6-4.5,0.9-6.8c1-7.1,2-14.5,3.2-21.7
				c0.1-0.6,0.2-1.2,0.3-1.8c0.5-2.6,0.9-5.6,0.8-8.9c-0.1-2.7-1.4-5.3-3.5-7.1c-2.1-1.8-4.9-2.6-7.6-2.2c-0.2,0-0.3,0-0.5,0
				c-1.5,0.2-4.3,0.4-7.2,2.3c-10.3,6.5-19.7,14.1-29.2,21.9c-5.7,4.7-11.6,9.7-17.8,15c0-0.6-0.1-1.2-0.1-1.8
				c-0.3-5.1-0.5-10.2-0.8-15.3c0,0,0-0.1,0-0.1c-0.2-2.2-0.2-4.4-0.3-6.7c-0.2-4.7-0.4-9.6-1.1-14.6c-0.4-2.8-2-5.3-4.4-6.8
				c-2.4-1.5-5.3-2-8-1.2l-0.2,0c-1.4,0.3-4.9,1.2-7.5,4.5c-1.5,1.7-2.6,3.4-3.6,4.9l-0.3,0.5c0,0-0.1,0.1-0.1,0.1
				c-4.1,6.3-8,13.1-12.1,20.7c-3.5,6.4-6.6,12.3-9.4,18c-0.9-2.1-1.7-4.1-2.6-6.1c0-0.1-0.1-0.1-0.1-0.2c-0.5-1.1-1-2.2-1.5-3.3
				c-1.6-3.7-3.3-7.5-5.5-11.2c-0.2-0.3-0.3-0.5-0.5-0.7l-0.1-0.2c-5-7.3-11.2-6.5-14.3-5.5c-6.8,2.1-9.6,7.8-11.1,10.9l-0.1,0.3
				c-1.9,3.8-2.7,7.5-3.5,10.8c-0.2,0.6-0.3,1.2-0.5,2c-0.6,2.4-1.1,4.8-1.5,7.2c-0.7-0.8-1.4-1.5-2-2.3c-4.2-4.7-8.5-9.5-12.6-14.3
				c-2.7-3.2-7.1-4.3-10.9-2.8c-1.3,0.4-4.9,1.4-7.2,5.1c0,0,0,0.1-0.1,0.1c-2.5,4.2-3.2,8.4-3.8,11.8c-0.1,0.7-0.2,1.3-0.3,2
				c0,0.2-0.1,0.4-0.1,0.6c-0.7,5.8-1.2,11.6-1.5,17.4c-1-0.3-2-0.4-3.1-0.3c-3.6,0.1-6.9,1.9-8.9,4.8c-3.1,4.4-4,9.2-4.7,12.8
				c0,0.2,0,0.3-0.1,0.4c-0.1,0.8-0.2,1.6-0.3,2.4c-8.8-4.2-17.5-8.3-26.1-12.4c-6.5-3.1-13-6.2-19.5-9.3
				c-15-7.2-29.9-14.3-44.9-21.4c-20.1-9.5-40.9-19.5-61.3-29.3c-0.3-0.1-0.6-0.3-0.9-0.4c-0.9-0.3-2-0.9-3.1-1.5
				c-2.1-1.1-4.8-2.4-7.9-3.2c-2.8-0.7-5.8-0.2-8.1,1.5c-2.3,1.6-3.8,4.1-4.1,7l0,0.2c-0.2,1.4-0.9,5.4,1.6,9.4
				c1.2,2.2,2.4,4.3,3.6,6.3c0.6,1.1,1.3,2.2,1.9,3.3c0,0,0,0.1,0,0.1c9.1,15.6,18.1,31.1,27.2,46.7c13.6,23.4,27.2,46.8,40.9,70.1
				c3.5,6.1,7.1,12.3,10.6,18.3c4.1,7,8.3,14.2,12.4,21.4c-1.3,1-2.5,1.9-3.7,2.8c-9.5,7.5-18.1,16-24.5,22.6
				c-0.1,0.1-0.1,0.1-0.2,0.2c-12.3,13.3-22.3,26.4-30.5,39.9c-7.6,12.4-14,25.3-19.1,38.3c-10.2,25.7-16.1,54-17.5,84.1
				c0,0.1,0,0.3,0,0.4c0,1.5,0,3,0,4.5c0,5.7-0.1,11.5,0,17.4c0,4.2,1.8,7.4,2.8,9.4c0.2,0.4,0.4,0.8,0.5,1c0.1,0.1,0.1,0.3,0.2,0.4
				c3.2,6.2,6.7,12.9,10.5,19.5c0.2,0.3,0.3,0.6,0.5,0.8c0.2,0.2,0.3,0.4,0.4,0.7c1.1,1.8,3.2,5.3,7.5,7.1c0.6,0.3,1.3,0.5,1.9,0.6
				c1.3,0.3,4.4,0.6,7.6-1.1c1.5,0.8,3.3,1.3,5.1,1.2h0.2c1.8,0,6.6-0.2,10.3-4.1c1.8-1.8,3.2-3.6,4.4-5.2c0.2-0.3,0.4-0.5,0.6-0.8
				c0.5,2,1.1,4.2,2.3,6.4c0,0.1,0.1,0.1,0.1,0.2c1.6,2.9,4.4,4.9,7.7,5.5c3.6,0.7,7.4-0.3,10.3-2.7c0.1,0,0.1-0.1,0.2-0.1
				c2.7-2.3,4.8-4.8,6.8-7.1c0.5-0.6,1-1.2,1.5-1.8c2.9-3,5.5-6.2,8.1-9.2c1.8-2.1,3.5-4.1,5.2-6.1c0.5,8.2,1.5,16.7,3.2,26
				c3.8,21.9,10,44.5,19.4,71.2c5.6,15.4,11.2,29.5,17,42.6c-0.8,0.9-1.5,1.9-2.3,2.9c-2,2.4-4,5-5.9,7.6c-2.3,2.7-3.9,7-2.8,11.3
				c1,3.9,4.2,7,8.2,7.9c0.6,0.1,1.2,0.2,1.8,0.3c2.7,0.1,5.1-0.2,7.3-0.4c0.7-0.1,1.5-0.2,2.2-0.2c0.1,0,0.2,0,0.3,0
				c2.5-0.3,4.9-0.5,7.3-0.8c-0.3,1.1-0.5,2.4-0.6,3.6c-0.4,4.3,2,8.4,6.1,10.1c1.8,0.8,3.6,1,5.1,1c3.2,0,5.8-1.1,7.3-1.8
				c0.2-0.1,0.3-0.2,0.5-0.2c4-1.5,8-3.1,12.1-4.6c2.8-1.1,5.6-2.1,8.4-3.2c1.1,1.2,2.5,2.2,4.2,2.8c3.3,1.1,6.8,1.1,10.6-0.1
				c4.6-1.4,9.3-2.9,13.9-4.3c6-1.8,12.2-3.7,18.2-5.6c2.1-0.7,4.3-1.3,6.4-1.9c3.3-1,6.7-2,10.1-3.1c2.9-0.6,7.1-2.7,9.1-9.1l0-0.1
				c0-0.2,0.1-0.3,0.1-0.5c1.6-6.7,3.4-13.4,5.1-20c0.2-0.6,0.3-1.1,0.4-1.7c1.4,1.7,2.8,3.5,4.2,5.2c5.3,6.5,10.6,13,15.9,19.5
				c0,0,0.1,0.1,0.1,0.1c0.5,0.5,0.9,1.1,1.3,1.6c1.4,1.8,3.1,4,5.6,6c1.6,1.3,3.6,2.1,5.7,2.2c3.9,0.2,6.8-1.6,8-2.4l0.2-0.2
				c0.3-0.2,0.6-0.4,0.9-0.6c3.9-2.9,7.8-6.4,11.5-10.2c5-5.1,9.7-10.8,14.1-17.1c0.2,2.4,0.4,4.8,0.6,7.2c0,0.2,0,0.4,0.1,0.6
				l0,0.3c0.1,1.6,0.5,5.8,4.1,9.1c2.4,2.1,4.8,3.7,7,5.1c0.7,0.4,1.4,0.9,2.1,1.3c0.1,0,0.2,0.1,0.2,0.2
				c8.1,5.1,16.2,9.4,24.1,12.9c0,0,0.1,0,0.1,0c7.2,3.1,14.9,6.2,23.2,8.2c4.7,1.3,10.5,2.9,16.9,2.5c2.8-0.2,5.4-1.5,7.2-3.8
				c1.4-1.7,2.1-3.8,2.1-5.9c3.9,0.2,7.8,0.4,11.7,0.6c4.8,0.2,9.6,0.5,14.4,0.7c2.6,0.1,5.1-0.8,7.1-2.5c0.1-0.1,0.2-0.2,0.3-0.3
				c3-2.4,4.4-6.3,3.5-10.1c-0.1-0.5-0.3-1.1-0.4-1.7c3.8-0.2,7.6-0.5,11.5-0.8c0.5,0,1-0.1,1.4-0.2c4.4-1.1,7.7-4.7,8.2-9.3
				c0.6-4.5-1.5-8.9-5.3-11.2c-4.2-2.8-8.4-5.6-12.7-8.3c2.1-3.8,3.9-7.7,5.7-11.4c0.6-1.3,1.2-2.5,1.8-3.8c0,0,0-0.1,0.1-0.1
				c17.5-37.9,27.8-76.7,30.5-115.1c0.2-2.3,0.3-4.5,0.3-6.6c0-3.1,0.1-5.8,0.8-8c0,0,0-0.1,0-0.1c0,0,0-0.1,0-0.1
				c4,7.1,6.2,15,7.6,20.9c0,0.1,0.1,0.2,0.1,0.4c0.3,1,0.5,2.2,0.7,3.5c0.4,2.1,0.8,4.6,1.7,7.2c1.8,5.1,7.4,7.8,12.5,6.1
				c1.4-0.5,5.6-1.9,7.9-6.4l0.3-0.6c0.7-1.3,1.4-2.6,2.1-3.8c1.3,3.8,2.6,7.5,3.9,11.3c0,0.1,0.1,0.2,0.1,0.3l0.1,0.2
				c0.5,1.4,1.5,4.2,4.4,6.4c0.8,0.7,1.8,1.2,2.8,1.6c3,1.1,6.3,0.8,9.1-0.7c2.9-1.6,5-4.5,5.9-8c1.2-4.7,2.4-9.4,3.5-14.1
				c0.7-2.9,1.5-5.9,2.2-8.9c0.9,1.1,1.8,2.5,2.8,3.9c0.8,1.2,1.6,2.4,2.5,3.7c0.9,1.2,2.1,2.3,3.5,3c3.5,1.8,7.4,1.7,10.6-0.1
				c2-1.1,5.5-3.9,6-10.1c0-0.1,0-0.2,0-0.3C730.9,515.8,728.4,485.2,721.4,457z"/>
		</g>
	</g>
	<g id="Layer_1_1_">
		<g>
			<path class="st1" d="M505.8,304.8c2.2-2.3,4.3-4.7,6.7-6.8c4.5,7,8.4,14.6,10.4,22.7c1.2,5.1,1.9,10.3,1.7,15.5
				c-0.6,11.1-5.7,21.8-13.5,29.7c-6.8,6.1-15.7,9.8-24.8,10.1c-8,0.6-15.8-2.1-22.8-5.8c-4.3-2.3-8.3-5.2-12-8.4
				c7.5-8,15.2-15.8,22.6-23.8c0.3,5.1,0.3,10.4,2.5,15.1c1.5,3.3,4.1,6.7,7.9,7.2c1.7,0.5,2.9-0.9,4-1.9c2.8-2.7,3.8-6.7,4.4-10.4
				c1.5-9.4,0.1-18.9-1.4-28.3C496.5,314.8,501.1,309.7,505.8,304.8z"/>
			<path class="st1" d="M342.4,300.6c3.2,2.8,5.9,6.1,8.8,9.2c4.6,4.8,9.1,9.7,13.7,14.6c0.5,0.6,1,1.2,0.8,2
				c-1.4,8.1-2,16.4-0.8,24.6c0.7,4,1.7,8.3,4.9,11c2.5,2.1,6.8,2.9,9.2,0.3c1.5-1.5,2.4-3.6,2.9-5.7c1.2-4,1.2-8.2,1.5-12.4
				c4.6,4.9,9.1,9.8,13.7,14.6c3.2,3.5,6.6,6.8,9.6,10.4c-7.7,6.5-17.1,11.3-27.3,12c-5.7,0.6-11.4-0.3-16.8-2
				c-4.3-1.4-8.6-3.2-12.4-5.6c-10-5.6-17.6-15.4-20.4-26.5c-1.5-6.6-1.7-13.7,0-20.3C332.3,317.6,336.7,308.6,342.4,300.6z"/>
		</g>
	</g>
	<g id="Слой_4">
		<g>
			<path class="st2" d="M478.7,333.4c1.8-2.3,4.1-4.1,6.2-5.9c1,3.5,2,7.2,1.8,10.9c0,2.3-1.2,4.9-3.6,5.6c-1.7,0.3-2.9-1.1-3.5-2.5
				C478.6,338.9,478.6,336.1,478.7,333.4z"/>
			<path class="st2" d="M372.5,334.2c2.3,1.9,4.5,3.9,6.7,5.9c-0.2,2.7-0.3,6-2.7,7.8c-1.7,1-3.7-0.6-4.3-2.1
				C370.8,342,371.6,337.9,372.5,334.2z"/>
			<path class="st2" d="M545.5,379.4c5.3-2.8,10.2-6.2,15.4-9c-2.4,23.2-10.1,46.4-24.8,64.9c-3.3,4-6.6,8-10.5,11.5
				c-3.9-17.2-8.3-34.4-12.2-51.6C524.3,390.3,535.2,385.3,545.5,379.4z"/>
			<path class="st2" d="M297.1,382.4c3.7,1.7,7,4,10.7,5.8c11.2,5.7,22.8,10.5,34.8,14.4c2.5,0.8,5.1,1.5,7.5,2.5
				c-0.6,5.3-1.7,10.6-2.5,15.9c-1.8,11.3-3.6,22.6-5.6,33.9c-20.2-13.9-35.1-35.2-41.9-58.7C298.8,391.7,297.7,387,297.1,382.4z"/>
			<path class="st2" d="M507.7,397.3c1.1-0.4,2.1-0.8,3.2-1.1c4.2,17.6,8.4,35.1,12.6,52.7c-10.4,9.3-22.4,16.6-35.3,21.8
				c-2.6,1-5.1,2.2-7.7,2.9c-2.3-21.8-4.8-43.6-7.3-65.3C484.8,405.1,496.5,401.8,507.7,397.3z"/>
			<path class="st2" d="M352.8,405.6c12,3.4,24.2,5.8,36.6,7.2c2,0.2,4,0.5,6,0.8c-1.1,18.3-2.4,36.6-3.5,55
				c-0.2,2.7-0.3,5.4-0.6,8.1c-16.7-3.7-32.7-10.4-46.9-19.8c2.2-15.2,4.9-30.3,7.2-45.4C352.1,409.4,352.5,407.5,352.8,405.6z"/>
			<path class="st2" d="M453.6,411.8c5.6-0.8,11.2-2.1,16.8-3c2.5,21.8,4.8,43.7,7.3,65.5c-5.7,2.3-11.7,3.5-17.7,4.8
				c-7.8,1.6-15.7,2.6-23.6,3c-0.7-11.8-0.9-23.6-1.4-35.4c-0.3-10.9-0.9-21.8-1-32.8C440.6,413.4,447.2,412.9,453.6,411.8z"/>
			<path class="st2" d="M398.2,413.8c10,0.5,20.1,1.2,30.2,0.5c0.8-0.1,1.7-0.1,2.5,0c0.6,0.6,0.5,1.4,0.6,2.2
				c0.7,21.9,1.4,43.8,2.2,65.7c-2.4,0.3-4.9-0.2-7.3-0.3c-10.8-0.9-21.7-2-32.3-4.7C395.4,456,396.6,434.9,398.2,413.8z"/>
		</g>
	</g>
	<g id="Слой_3">
		<g>
			<g>
				<path class="st3" d="M440,141.2c0.6-0.9,1.8-1,2.7-1.3c1,6.8,0.9,13.7,1.4,20.5c0.7,12.4,1.2,24.8,2,37.1
					c10.8-9.5,21.7-18.9,32.8-28c9.1-7.4,18.3-14.8,28.3-21.2c1.1-0.7,2.4-0.7,3.7-0.8c0.2,2.9-0.5,5.8-1,8.7
					c-1.5,9.6-2.8,19.2-4.1,28.8c-0.9,8.3-2.3,16.7-1.8,25.1c4.2-1.1,7.3-4.2,10.4-7c2.1-1.8,4-4,6.1-5.9c0.7-0.8,1.8-0.6,2.8-0.7
					c-0.5,4.5-2.2,8.7-3.4,13c-1.6,5.8-3.4,11.5-5.1,17.2c18.5-8.6,37-16.8,55.5-25.4c21.1-9.5,42.2-19.2,63.3-28.7
					c8.6-4.1,17.4-7.8,26-11.9c3.8-1.7,7.7-3.4,11.5-5.1c3.5-1.4,6.8-3.3,10.3-4.6c1.3-0.5,2.3,1.1,1.7,2.2
					c-5.1,13-10.1,26.1-15.6,39c-6.5,16.5-13.6,32.7-20.8,48.9c-8.4,18.7-17.2,37.3-27.7,54.9c-3.4,5.3-7,10.4-11.3,14.9
					c6.6,7.6,11.9,16.2,16.4,25.1c0.6,1.1,1.1,2.4,2.2,2.9c12.5,6.6,23.5,15.8,33.5,25.6c25.8,25.8,43.2,59.3,51.8,94.5
					c7.4,29.6,9,60.4,7.4,90.8c-0.1,1.3-0.6,3.2-2.4,2.2c-2.1-2.9-3.8-6.1-6.2-8.7c-2.8-3.2-6-6.6-10.3-7.7c-1-0.3-2.4-0.6-3.2,0.3
					c-3.1,11.6-5.9,23.3-8.8,35c-0.2,0.9-0.9,2.2-2.1,1.8c-0.8-0.6-1-1.6-1.4-2.4c-2.7-8-5.6-15.9-8.4-23.9
					c-0.8-2.1-1.4-4.7-3.7-5.6c-2,2.4-3.2,5.3-4.7,8c-2.7,4.3-5.1,8.8-7.6,13.2c-0.5,1-1.5,1.4-2.4,1.7c-1.1-3.2-1.3-6.7-2.3-10
					c-2.7-11.4-6.8-22.8-14.4-31.9c-2.1-2.7-4.7-5-7.6-7c-1.4,5.9-3,11.8-4.7,17.6c-1.6,5.4-0.9,11.1-1.4,16.6
					C625,588,614.3,626,598,661.2c-2.6,5.4-5,10.9-8,16c-1.2,2.2-2.4,4.5-3.6,6.8c6.8,4.4,13.6,8.9,20.3,13.4c0.9,0.5,1.1,2.3,0,2.6
					c-8.9,0.8-17.9,1.1-26.8,2c1.8,3.3,3.9,6.4,5.9,9.6c0.6,0.9,0.9,2,1.1,3.1c-0.3,0.2-0.5,0.5-0.8,0.7c-13.3-0.7-26.6-1.3-39.9-2
					c1.1,3.5,2.9,6.8,3.6,10.4c-4.7,0.3-9.3-0.9-13.8-2.2c-7.5-1.8-14.7-4.7-21.7-7.7c-7.9-3.5-15.6-7.7-22.9-12.3
					c-2.7-1.8-5.5-3.3-7.9-5.5c-1-0.9-0.8-2.4-1-3.6c-0.9-11.2-2.2-22.4-3.2-33.7c-0.1-1.3-0.3-2.5-0.6-3.7
					c-7.3,15-16.2,29.3-27.9,41.3c-3.2,3.3-6.6,6.4-10.3,9.2c-0.9,0.5-1.8,1.2-2.8,1.2c-2.2-1.8-3.7-4.2-5.5-6.3
					c-10.8-13.3-21.7-26.5-32.5-39.8c-3.3,13.6-7,27.1-10.3,40.7c-0.3,1.1-0.6,2.4-2.1,2.5c-5.6,1.9-11.4,3.5-17.1,5.2
					c-10.7,3.4-21.5,6.6-32.2,9.9c-1.5,0.5-3,0.7-4.5,0.2c0-2.3,0-4.5,0-6.8c-10.5,4-21,8-31.5,12c-1.8,0.7-3.6,1.8-5.6,1
					c0.3-3.4,2-6.4,3.1-9.6c0.8-2,1.6-4,2.3-6.1c-7.6,0.5-15.3,1.2-22.9,2c-2.7,0.2-5.5,0.7-8.2,0.6c-1.6-0.4-0.8-2.6,0-3.4
					c3.6-4.9,7.6-9.5,11.3-14.4c0.5-0.5,0.6-1.2,0.3-1.8c-6.9-15.2-13-30.7-18.7-46.5c-8-22.7-14.8-45.9-19-69.6
					c-2-11.7-3.3-23.4-3.4-35.3c0.1-3.3-1.4-6.3-2.5-9.2c-4.1,2.7-7.3,6.5-10.8,9.9c-5.9,6.1-11,12.8-16.7,19
					c-2.4,2.7-4.7,5.6-7.4,8c-0.9,0.7-2.6,1.1-3.3,0c-1.4-2.7-1.7-5.8-2.2-8.7c-1.1-5.9-1.7-11.8-2.7-17.6
					c-3.9,5.6-7.9,11-12.1,16.4c-2.1,2.4-3.8,5.1-6.1,7.4c-0.9,1.1-2.4,1.1-3.7,1.1c-2-5.3-2.2-11.1-3.4-16.6
					c-1.5,4.7-2.6,9.6-4.4,14.2c-0.6,1-1.1,2.8-2.6,2.5c-1.9-0.8-2.7-2.9-3.8-4.5c-3.6-6.3-7-12.7-10.3-19.1
					c-0.9-2.1-2.5-3.9-2.5-6.3c-0.2-7.2-0.1-14.5,0-21.7c1.3-27.6,6.6-55.2,16.8-80.9c5-12.8,11.2-25.1,18.3-36.8
					c8.4-13.8,18.5-26.5,29.4-38.4c7.4-7.6,15.1-15.1,23.5-21.7c3.5-2.7,7-5.2,10.6-7.7c-8.9-15.9-18.3-31.6-27.5-47.4
					c-22.7-39-45.3-78-68-116.9c-1.9-3.3-3.9-6.4-5.6-9.8c-0.8-1-0.3-2.3-0.2-3.4c3.6,0.9,6.6,3.1,10,4.4
					c35.3,17,70.8,33.8,106.2,50.8c19.8,9.4,39.6,19,59.4,28.3c-0.4-5.5-0.3-11,0.4-16.4c0.6-3.1,1.2-6.4,3.1-9
					c0.5-0.8,1.7-0.9,2.3-0.1c3.9,3.5,7.1,7.7,11,11.1c0.1-12.4,0.3-24.9,1.9-37.2c0.7-3.6,0.9-7.4,2.9-10.6
					c0.5-0.8,1.5-0.8,2.3-1.1c6.8,7.9,13.8,15.6,20.7,23.4c2.8,3.2,5.5,6.3,8.4,9.4c0.9-9.2,1.9-18.5,4.1-27.5
					c0.9-3.6,1.6-7.4,3.3-10.7c1.2-2.4,2.4-5.3,5.3-6.1c1.6-0.9,2.6,0.7,3.3,1.8c2.5,4.4,4.4,9.1,6.5,13.8c3.7,8.6,7.3,17.3,10.7,26
					c2.9-6.1,6-12,9.1-18c3.2-6.5,6.5-12.9,10-19.2c3.6-6.8,7.5-13.6,11.7-20.1C437.7,144.3,438.7,142.7,440,141.2z M431.9,159.1
					c-8.5,15.3-16.4,30.8-24.1,46.5c-0.6,1-1.1,2.7-2.8,2c-1.6-2.8-2.6-5.9-3.8-8.9c-3-7.3-6-14.7-9.3-21.9
					c-1.9-4.3-3.7-8.6-6.1-12.6c-3.2,2.9-4.4,7.1-5.5,11.1c-2.7,10-4,20.3-4.9,30.6c-0.2,1.7-0.4,3.5-0.8,5.2c-1.7-0.4-2.9-1.8-4-3
					c-5-5.7-10-11.3-15.1-17c-4.2-4.7-8.3-9.5-12.6-14c-1.3,3.6-2,7.4-2.3,11.2c-1,8.8-1.2,17.6-1.5,26.4c-0.1,4.1,0.2,8.2-0.5,12.3
					c-1-0.3-2.1-0.5-2.8-1.3c-3.8-3.8-7.6-7.7-11.3-11.6c-1.4,2.9-2,6.2-2.3,9.4c-0.3,5.3-0.3,10.7,0.2,16c-1,0.3-2.1,0.4-3.1,0
					c-57.1-27.1-114-54.5-171.1-81.6c12.8,22.5,26.1,44.7,38.9,67.2c20.1,34.4,40.1,68.8,60.1,103.2c3.2-7.2,6.7-14.3,10.5-21.2
					c1.2-2.3,2.4-4.6,4.1-6.5c0.6,0,1.2,0.2,1.9,0.4c-0.3,0.8-0.5,1.6-0.8,2.4c-6.7,12-13,24.4-17.8,37.4
					c-12.4,32.2-18.1,66.8-17.6,101.3c0.3,7.6,0.6,15.2,1.2,22.7c2.6,28.4,8.7,56.4,18.1,83.3c3,8.2,6.1,16.5,9.9,24.4
					c0.5,1,0.6,2.1,0.7,3.2c-0.5,0-1.6,0.1-2.1,0.2c-4.5-8.9-7.9-18.2-11.4-27.6c0.2,7.8,1.2,15.6,2.4,23.4
					c4.3,26.7,12.1,52.7,21.3,78.1c5.3,14.5,11.2,28.9,17.6,43c0.4,0.8,0.3,1.7-0.3,2.4c-3.7,4.8-7.5,9.5-11.1,14.4
					c7.9-0.9,15.9-1.4,23.8-2.2c2.5-0.3,4.9-0.4,7.4-0.3c-0.2,1.2-0.3,2.5-0.8,3.7c-1.3,3.7-2.9,7.4-4.2,11.1
					c9-3.3,17.9-6.8,26.8-10.1c2.9-1,5.7-2.6,8.8-3c0.5,2.5,0.5,5.1,0.6,7.6c16.6-5.1,33.3-10,49.8-15.4c2.1-8.6,4.5-17.2,6.6-25.8
					c3.2-12.2,6.1-24.4,9.5-36.6c-0.1-1,0.8-1.6,1.7-1.7c24.9-1.6,49.8-3.2,74.7-5c1,3.1,0.9,6.3,1.3,9.5
					c1.8,17.6,3.4,35.2,5.2,52.8c11.2,7.7,23.2,14.4,35.9,19.3c8,3.3,16.3,5.8,24.8,7.3c-0.3-1.3-0.8-2.5-1.3-3.7
					c-0.8-2.3-2.2-4.5-1.3-6.9c13.1,0.8,26.3,1.7,39.5,2c-2.3-4.3-5.7-8-7.3-12.6c8.6-1.3,17.4-1.1,26.1-2.3
					c-2.9-2.2-6.1-4.1-9.1-6.1c-3.3-2.1-6.5-4.4-9.7-6.5c0.9-2.7,2.6-5.1,3.9-7.6c17.4-32.3,29.5-67.4,35.3-103.6
					c1.8-11.6,3.1-23.3,3.3-35c0-4.9,2.1-9.3,3.1-14c10.7-39.4,16.5-80.7,11.8-121.5c-2.3-20.9-7.5-41.7-16.3-60.9
					c-5.2-10.8-11.2-21.3-19.2-30.3c-1-0.7-0.4-1.8,0.3-2.4c2.2-2,4.2-4.2,6-6.6c7.6-10.3,13.3-21.8,19.2-33.1
					c3.6-7.2,7.1-14.5,10.5-21.9c13.9-30.5,26.7-61.5,38.7-92.8c-3.2,1.1-6.2,2.7-9.2,4c-5.1,2.3-10.3,4.6-15.3,7
					c-43.7,19.7-87.3,39.7-130.9,59.5c-3.9,1.7-7.7,3.8-11.8,5c-0.3-0.3-0.5-0.6-0.8-0.9c0.4-2.1,0.9-4.1,1.5-6.1c2.2-7,4-14,6.2-21
					c-3.4,3.1-6.8,6.4-10.8,8.7c-1.6,0.9-3.6,1.4-5.5,0.8c-1.1-0.5-1.6-1.7-1.7-2.8c-0.2-3.9,0.2-7.9,0.5-11.8
					c1.4-15.4,4.1-30.7,6.1-46.1c-7.8,4.9-15.1,10.6-22.3,16.4c-13,10.4-25.6,21.3-38.1,32.2c-1,0.8-2.3,1.3-3.5,1.8
					c-0.5-1.9-0.5-3.9-0.7-5.9c-0.9-16.9-1.7-33.9-2.8-50.8C437.4,149.7,434.7,154.4,431.9,159.1z M232.4,343.8
					c-13.6,11.4-25.8,24.5-36.4,38.8c-15,19.8-26.4,42.2-34.2,65.8c-9.4,28.3-13.3,58.2-12.3,88c-0.1,2.5,1.5,4.4,2.5,6.6
					c3.8,7.1,7.1,14.4,11.7,21c2.5-6.3,3.9-12.9,5.6-19.5c0.3-0.9,0.4-2,1.2-2.6c1.6-0.9,2,1.2,2.1,2.1c0.9,6.8,1.5,13.6,3.3,20.3
					c7.1-8.2,13.4-17,19.7-25.9c0.5-0.8,1.7-0.4,2.4-0.6c1.5,9.5,2.2,19.2,4.6,28.6c2.3-1.6,3.8-4,5.8-6c6.6-7.4,13-15,19.8-22.2
					c3.1-3.2,6.2-6.5,10.2-8.5c-3.9-15.2-7.6-30.5-9.7-46.1c-1.2-8.7-2.4-17.5-2.7-26.3c-2.8-41.6,3.2-84,18.9-122.7
					C240.5,337.2,236.4,340.5,232.4,343.8z M627.6,343c4.1,9.8,7.7,19.8,10.2,30.2c6.5,25.7,8,52.4,6.2,78.8
					c-1.5,20.3-4.6,40.5-9.4,60.2c5.6,3.5,10.1,8.6,13.5,14.2c6.1,9.6,9.3,20.7,11.6,31.7c2.4-3.8,4.5-7.7,6.7-11.5
					c1.3-2.3,2.3-5,4.3-6.8c1.5-1.4,4-1.3,5.6,0c2.6,3.3,3.3,7.6,4.8,11.5c1.9,5.1,3.5,10.4,5.6,15.5c2.7-10.3,5.3-20.6,7.9-31
					c0.1-0.8,0.5-1.9,1.4-2c3.2-0.6,6.7-0.4,9.4,1.5c4.8,2.8,8.1,7.4,11.4,11.7c1.4-23,0.3-46.1-3.6-68.7c-3-18-8.2-35.8-15.4-52.6
					c-9-20.7-21.4-40-37.2-56.3C650.7,359.2,639.8,350,627.6,343z M406.2,639.3c-1.2-0.1-1.4,1.2-1.7,2.1c-1.2,5-2.5,9.9-3.7,14.9
					c-0.2,0.5,0,1,0.3,1.4c12.4,15.2,24.9,30.4,37.2,45.7c9.2-6.8,16.5-15.6,23.2-24.7c6.5-9.2,12.1-19,16.6-29.4
					c0.2-3.8-0.7-7.7-0.8-11.5c-0.4-1,0.3-3.2-1.3-3.2C452.8,636.3,429.5,637.7,406.2,639.3z"/>
			</g>
			<g>
				<path class="st3" d="M522.1,283.6c0.7-0.9,2.4-1.4,3.1-0.2c0.3,0.7-0.2,1.3-0.6,1.8c-3.3,3.7-6.9,7-10.1,10.8
					c4.7,6.3,8,13.5,10.4,20.9c1.7,5.5,2.6,11.2,2.5,17c0.4,8.8-2.4,17.4-6.9,24.9c-3,4.5-6.2,9.1-10.9,12c-8.9,6.5-20.5,9-31.3,7.3
					c-5.2-0.9-10.3-2.6-14.9-5.1c-4.9-2.4-9.2-5.8-13.5-9.1c-0.9,0.7-1.6,1.8-2.8,1.9c-0.9,0.1-1.6-1.2-1.1-1.9
					c1.8-2.7,4.4-4.8,6.5-7.2C475.5,332.3,498.8,308,522.1,283.6z M505.8,304.8c-4.8,4.9-9.4,9.9-14.1,14.8
					c1.5,9.3,2.9,18.9,1.4,28.3c-0.7,3.7-1.7,7.7-4.4,10.4c-1.1,1-2.3,2.4-4,1.9c-3.8-0.6-6.4-3.9-7.9-7.2c-2.2-4.7-2.2-10-2.5-15.1
					c-7.4,8-15.1,15.9-22.6,23.8c3.6,3.2,7.7,6.1,12,8.4c7,3.7,14.8,6.4,22.8,5.8c9.1-0.3,18-4,24.8-10.1
					c7.7-7.9,12.9-18.5,13.5-29.7c0.2-5.2-0.5-10.4-1.7-15.5c-2.1-8.1-5.9-15.7-10.4-22.7C510.1,300.1,508,302.5,505.8,304.8z
					 M478.7,333.4c-0.1,2.7,0,5.5,1,8.1c0.6,1.3,1.8,2.8,3.5,2.5c2.4-0.6,3.6-3.3,3.6-5.6c0.2-3.7-0.8-7.4-1.8-10.9
					C482.8,329.3,480.4,331.1,478.7,333.4z"/>
			</g>
			<g>
				<path class="st3" d="M328.7,283.6c1.5-0.6,2.5,0.8,3.5,1.6c26.5,28,52.5,56.4,79,84.5c0.9,0.8,0.8,2.1,0.9,3.1
					c-1.2-0.3-2.3-0.7-3.4-1.3c-4.6,3.8-9.8,7.2-15.4,9.4c-10.8,4.3-23.2,4.1-34.1,0.2c-5.2-1.9-10.1-4.4-14.7-7.6
					c-4.9-3.3-8.8-8-12-12.9c-4.5-7-6.5-15.4-6.5-23.7c0.6-13.9,6.3-27.3,14.6-38.3c-3.7-3.9-7.3-7.8-11-11.6
					C329.1,286,327.6,284.7,328.7,283.6z M342.4,300.6c-5.8,7.9-10.1,16.9-12.4,26.5c-1.7,6.6-1.5,13.6,0,20.3
					c2.8,11.1,10.3,20.9,20.4,26.5c3.9,2.4,8.1,4.2,12.4,5.6c5.4,1.7,11.1,2.6,16.8,2c10.1-0.7,19.6-5.5,27.3-12
					c-3-3.7-6.5-6.9-9.6-10.4c-4.6-4.8-9.1-9.7-13.7-14.6c-0.4,4.1-0.3,8.3-1.5,12.4c-0.5,2.1-1.4,4.1-2.9,5.7
					c-2.5,2.6-6.7,1.7-9.2-0.3c-3.2-2.7-4.2-7.1-4.9-11c-1.2-8.2-0.6-16.5,0.8-24.6c0.2-0.8-0.3-1.4-0.8-2
					c-4.5-4.9-9.1-9.8-13.7-14.6C348.3,306.8,345.7,303.4,342.4,300.6z M372.5,334.2c-1,3.8-1.8,7.9-0.3,11.6
					c0.6,1.5,2.6,3.1,4.3,2.1c2.4-1.8,2.5-5.1,2.7-7.8C377,338.1,374.8,336.1,372.5,334.2z"/>
			</g>
			<g>
				<path class="st3" d="M564.1,364.8c1-0.6,2-1.1,3.1-1.4c0.3,0.7,0.4,1.4,0.7,2.2c-1.4,0.9-2.7,1.8-4.1,2.7
					c-1.1,13-3.8,25.9-8.5,38.2c-5,13.2-12.1,25.6-21.6,36.1c-16.3,18.3-38.8,30.3-62.3,36.7c-12.7,3.3-25.7,5.5-38.9,5.6
					c-22.5-0.9-45.2-4.7-66.1-13.2c-13.3-5.5-25.9-13-36.5-22.6c-11.3-9.8-20.1-22.3-26.5-35.8c-4.4-9.6-7.7-19.9-9-30.4
					c-0.3-0.7,0.1-1.9-0.8-2.4c-2.6-1.8-5.2-3.3-7.8-5.1c0-0.5,0.1-1.5,0.2-2.1c1.3,0,2.5,0.5,3.5,1.2c17.7,11.9,37.5,20.6,57.8,27
					c32.9,10.2,68,13.3,102.1,8.5C490.7,404.1,529.7,387.6,564.1,364.8z M545.5,379.4c-10.3,5.9-21.2,10.9-32.1,15.7
					c3.9,17.2,8.3,34.4,12.2,51.6c3.9-3.4,7.3-7.4,10.5-11.5c14.6-18.5,22.3-41.6,24.8-64.9C555.7,373.2,550.8,376.6,545.5,379.4z
					 M297.1,382.4c0.6,4.7,1.7,9.3,2.9,13.8c6.9,23.5,21.7,44.8,41.9,58.7c2-11.3,3.8-22.6,5.6-33.9c0.8-5.3,1.9-10.6,2.5-15.9
					c-2.4-1.1-5-1.7-7.5-2.5c-11.9-3.9-23.6-8.7-34.8-14.4C304.2,386.4,300.8,384.1,297.1,382.4z M507.7,397.3
					c-11.2,4.5-22.9,7.8-34.5,10.9c2.4,21.8,4.9,43.6,7.3,65.3c2.7-0.7,5.2-1.8,7.7-2.9c12.9-5.2,24.9-12.6,35.3-21.8
					c-4.2-17.6-8.4-35.1-12.6-52.7C509.8,396.4,508.7,396.8,507.7,397.3z M352.8,405.6c-0.4,1.9-0.8,3.8-1.1,5.8
					c-2.3,15.1-5,30.3-7.2,45.4c14.2,9.4,30.2,16.1,46.9,19.8c0.3-2.7,0.4-5.4,0.6-8.1c1-18.3,2.3-36.6,3.5-55c-2-0.3-4-0.5-6-0.8
					C377.1,411.4,364.8,409,352.8,405.6z M453.6,411.8c-6.5,1-13,1.6-19.5,2.2c0,10.9,0.6,21.9,1,32.8c0.5,11.8,0.7,23.6,1.4,35.4
					c7.9-0.5,15.8-1.5,23.6-3c6-1.3,12-2.6,17.7-4.8c-2.5-21.8-4.9-43.7-7.3-65.5C464.8,409.7,459.3,411,453.6,411.8z M398.2,413.8
					c-1.5,21.1-2.7,42.3-4.1,63.4c10.6,2.7,21.4,3.9,32.3,4.7c2.4,0.1,4.9,0.5,7.3,0.3c-0.9-21.9-1.6-43.8-2.2-65.7
					c-0.1-0.8,0-1.7-0.6-2.2c-0.8-0.2-1.7-0.1-2.5,0C418.3,415,408.2,414.3,398.2,413.8z"/>
			</g>
		</g>
	</g>
	<g id="Слой_2">
		<g>
			<g>
				<path class="st4" d="M431.9,159.1c2.8-4.7,5.5-9.5,8.6-13.9c1.1,16.9,1.8,33.9,2.8,50.8c0.2,2,0.2,4,0.7,5.9
					c1.2-0.5,2.4-1,3.5-1.8c12.5-11,25.1-21.8,38.1-32.2c7.2-5.8,14.4-11.5,22.3-16.4c-2,15.4-4.7,30.6-6.1,46.1
					c-0.3,3.9-0.7,7.8-0.5,11.8c0.1,1.1,0.6,2.4,1.7,2.8c1.8,0.7,3.8,0.2,5.5-0.8c4-2.3,7.4-5.6,10.8-8.7c-2.2,7-4,14-6.2,21
					c-0.6,2-1.2,4-1.5,6.1c0.3,0.3,0.5,0.6,0.8,0.9c4.1-1.2,7.9-3.3,11.8-5c43.6-19.8,87.2-39.7,130.9-59.5c5.1-2.4,10.2-4.7,15.3-7
					c3.1-1.3,6.1-2.9,9.2-4c-12,31.3-24.8,62.3-38.7,92.8c-3.4,7.3-6.9,14.6-10.5,21.9c-5.9,11.3-11.6,22.8-19.2,33.1
					c-1.8,2.4-3.8,4.6-6,6.6c-0.7,0.6-1.2,1.7-0.3,2.4c8,8.9,14,19.5,19.2,30.3c8.8,19.2,14,39.9,16.3,60.9
					c4.7,40.8-1.1,82.1-11.8,121.5c-1,4.7-3.2,9.1-3.1,14c-0.2,11.7-1.4,23.4-3.3,35c-5.9,36.2-17.9,71.3-35.3,103.6
					c-1.3,2.5-2.9,4.9-3.9,7.6c3.2,2.2,6.5,4.4,9.7,6.5c3,2,6.2,3.8,9.1,6.1c-8.6,1.2-17.4,0.9-26.1,2.3c1.5,4.6,5,8.3,7.3,12.6
					c-13.2-0.4-26.3-1.2-39.5-2c-0.9,2.4,0.5,4.7,1.3,6.9c0.5,1.2,0.9,2.4,1.3,3.7c-8.5-1.5-16.8-4-24.8-7.3
					c-12.7-4.9-24.7-11.6-35.9-19.3c-1.8-17.6-3.4-35.2-5.2-52.8c-0.4-3.2-0.3-6.4-1.3-9.5c-24.9,1.7-49.8,3.3-74.7,5
					c-0.9,0.1-1.7,0.6-1.7,1.7c-3.4,12.1-6.2,24.4-9.5,36.6c-2.1,8.6-4.5,17.2-6.6,25.8c-16.5,5.3-33.2,10.3-49.8,15.4
					c-0.2-2.6-0.2-5.1-0.6-7.6c-3.1,0.5-5.9,2-8.8,3c-8.9,3.3-17.9,6.9-26.8,10.1c1.2-3.8,2.9-7.4,4.2-11.1c0.5-1.2,0.6-2.5,0.8-3.7
					c-2.5-0.1-4.9,0-7.4,0.3c-7.9,0.8-15.9,1.4-23.8,2.2c3.6-4.9,7.4-9.6,11.1-14.4c0.6-0.7,0.7-1.6,0.3-2.4
					c-6.4-14.1-12.3-28.5-17.6-43c-9.2-25.4-17.1-51.4-21.3-78.1c-1.2-7.7-2.2-15.5-2.4-23.4c3.4,9.3,6.8,18.7,11.4,27.6
					c0.5,0,1.5-0.1,2.1-0.2c-0.1-1.1-0.2-2.2-0.7-3.2c-3.9-7.9-6.9-16.2-9.9-24.4c-9.4-26.9-15.5-54.9-18.1-83.3
					c-0.7-7.6-0.9-15.1-1.2-22.7c-0.5-34.4,5.1-69.1,17.6-101.3c4.9-12.9,11.1-25.3,17.8-37.4c0.4-0.8,0.5-1.6,0.8-2.4
					c-0.6-0.2-1.2-0.4-1.9-0.4c-1.7,2-2.8,4.3-4.1,6.5c-3.8,6.9-7.2,14-10.5,21.2c-19.9-34.5-40-68.9-60.1-103.2
					c-12.8-22.5-26.2-44.7-38.9-67.2c57.1,27.2,114,54.5,171.1,81.6c1,0.4,2.1,0.3,3.1,0c-0.6-5.3-0.6-10.7-0.2-16
					c0.3-3.2,0.9-6.5,2.3-9.4c3.7,4,7.4,7.9,11.3,11.6c0.7,0.8,1.8,1,2.8,1.3c0.7-4,0.4-8.2,0.5-12.3c0.3-8.8,0.5-17.6,1.5-26.4
					c0.3-3.8,1-7.6,2.3-11.2c4.4,4.5,8.5,9.3,12.6,14c5.1,5.6,10.1,11.2,15.1,17c1.1,1.2,2.3,2.6,4,3c0.3-1.7,0.6-3.5,0.8-5.2
					c0.9-10.3,2.2-20.6,4.9-30.6c1.2-3.9,2.3-8.2,5.5-11.1c2.4,4,4.2,8.3,6.1,12.6c3.3,7.2,6.3,14.6,9.3,21.9c1.2,3,2.1,6.1,3.8,8.9
					c1.7,0.7,2.1-1,2.8-2C415.5,190,423.4,174.4,431.9,159.1z M522.1,283.6c-23.3,24.4-46.6,48.7-69.7,73.2
					c-2.1,2.4-4.8,4.5-6.5,7.2c-0.5,0.8,0.2,2,1.1,1.9c1.2-0.2,1.9-1.3,2.8-1.9c4.3,3.3,8.6,6.6,13.5,9.1c4.7,2.5,9.7,4.1,14.9,5.1
					c10.9,1.7,22.4-0.8,31.3-7.3c4.6-2.9,7.9-7.5,10.9-12c4.5-7.4,7.2-16.1,6.9-24.9c0.1-5.8-0.7-11.5-2.5-17
					c-2.4-7.4-5.7-14.7-10.4-20.9c3.2-3.8,6.8-7.1,10.1-10.8c0.4-0.5,0.9-1.1,0.6-1.8C524.5,282.3,522.8,282.7,522.1,283.6z
					 M328.7,283.6c-1.1,1,0.4,2.4,1,3.2c3.7,3.8,7.3,7.8,11,11.6c-8.3,11.1-13.9,24.4-14.6,38.3c0,8.3,2,16.7,6.5,23.7
					c3.2,5,7,9.6,12,12.9c4.5,3.2,9.5,5.7,14.7,7.6c10.9,4,23.3,4.1,34.1-0.2c5.6-2.2,10.7-5.5,15.4-9.4c1.1,0.6,2.2,1,3.4,1.3
					c-0.2-1.1-0.1-2.3-0.9-3.1c-26.5-28-52.5-56.5-79-84.5C331.1,284.4,330.2,283.1,328.7,283.6z M564.1,364.8
					c-34.4,22.8-73.4,39.3-114.5,45c-34.1,4.8-69.2,1.6-102.1-8.5c-20.3-6.4-40.1-15.1-57.8-27c-1.1-0.7-2.2-1.3-3.5-1.2
					c0,0.5-0.1,1.5-0.2,2.1c2.5,1.8,5.2,3.4,7.8,5.1c0.8,0.5,0.4,1.7,0.8,2.4c1.2,10.6,4.5,20.8,9,30.4
					c6.4,13.5,15.2,25.9,26.5,35.8c10.7,9.7,23.2,17.2,36.5,22.6c20.9,8.6,43.6,12.3,66.1,13.2c13.1-0.1,26.2-2.3,38.9-5.6
					c23.5-6.4,45.9-18.4,62.3-36.7c9.5-10.4,16.6-22.9,21.6-36.1c4.6-12.2,7.3-25.1,8.5-38.2c1.4-0.9,2.7-1.8,4.1-2.7
					c-0.3-0.8-0.4-1.4-0.7-2.2C566.1,363.7,565.1,364.2,564.1,364.8z"/>
			</g>
			<path class="st4" d="M232.4,343.8c4-3.3,8-6.6,12.4-9.4c-15.7,38.7-21.7,81.1-18.9,122.7c0.3,8.8,1.5,17.6,2.7,26.3
				c2.1,15.6,5.8,30.9,9.7,46.1c-4,2-7.1,5.4-10.2,8.5c-6.9,7.2-13.2,14.8-19.8,22.2c-1.9,2-3.5,4.4-5.8,6
				c-2.4-9.4-3.1-19.1-4.6-28.6c-0.8,0.1-1.9-0.2-2.4,0.6c-6.2,8.8-12.5,17.7-19.7,25.9c-1.8-6.6-2.4-13.5-3.3-20.3
				c-0.1-1-0.5-3-2.1-2.1c-0.8,0.7-0.9,1.7-1.2,2.6c-1.6,6.6-3.1,13.2-5.6,19.5c-4.5-6.6-7.9-13.9-11.7-21c-1-2.1-2.6-4.1-2.5-6.6
				c-0.9-29.7,3-59.7,12.3-88c7.8-23.6,19.3-45.9,34.2-65.8C206.6,368.3,218.8,355.2,232.4,343.8z"/>
			<path class="st4" d="M627.6,343c12.3,7,23.1,16.3,32.9,26.3c15.7,16.3,28.2,35.6,37.2,56.3c7.3,16.8,12.4,34.5,15.4,52.6
				c3.8,22.7,5,45.8,3.6,68.7c-3.3-4.3-6.6-8.9-11.4-11.7c-2.7-1.9-6.2-2.1-9.4-1.5c-0.9,0.1-1.3,1.2-1.4,2
				c-2.6,10.3-5.1,20.7-7.9,31c-2.1-5.1-3.7-10.3-5.6-15.5c-1.5-3.8-2.2-8.1-4.8-11.5c-1.6-1.3-4.1-1.3-5.6,0c-2,1.9-3,4.5-4.3,6.8
				c-2.2,3.9-4.3,7.8-6.7,11.5c-2.3-11-5.5-22.1-11.6-31.7c-3.4-5.6-7.9-10.7-13.5-14.2c4.8-19.8,7.9-40,9.4-60.2
				c1.9-26.3,0.4-53.1-6.2-78.8C635.3,362.8,631.6,352.8,627.6,343z"/>
			<path class="st4" d="M406.2,639.3c23.3-1.7,46.6-3,69.9-4.7c1.6,0,0.9,2.3,1.3,3.2c0.2,3.8,1,7.7,0.8,11.5
				c-4.5,10.3-10.1,20.1-16.6,29.4c-6.6,9.2-14,18-23.2,24.7c-12.3-15.3-24.8-30.5-37.2-45.7c-0.3-0.4-0.5-0.9-0.3-1.4
				c1.2-5,2.5-9.9,3.7-14.9C404.8,640.5,405,639.2,406.2,639.3z"/>
		</g>
	</g>
</g>
</svg>
